# xmcd CD database file
#
# Track frame offsets:
#	150
#	26187
#	53920
#	76143
#	104492
#	136708
#	162592
#	191701
#	222912
#	253678
#	278453
#
# Disc length: 4021 seconds
#
# Revision: 2
# Processed by: cddbd v1.5.1PL0 Copyright (c) Steve Scherf et al.
# Submitted via: CDex 1.40Beta9
#
DISCID=990fb30b
DTITLE=John Irving - The Fourth Hand
DYEAR=2001
DGENRE=General Books
TTITLE0=Fourth Hand aa
TTITLE1=Fourth Hand ab
TTITLE2=Fourth Hand ac
TTITLE3=Fourth Hand ad
TTITLE4=Fourth Hand ae
TTITLE5=Fourth Hand af
TTITLE6=Fourth Hand ag
TTITLE7=Fourth Hand ah
TTITLE8=Fourth Hand ai
TTITLE9=Fourth Hand aj
TTITLE10=Fourth Hand ak
EXTD=YEAR: 2001
EXTT0=
EXTT1=
EXTT2=
EXTT3=
EXTT4=
EXTT5=
EXTT6=
EXTT7=
EXTT8=
EXTT9=
EXTT10=
PLAYORDER=
